ffmpeg version 6.0-essentials_build-www.gyan.dev Copyright (c) 2000-2023 the FFmpeg developers
  built with gcc 12.2.0 (Rev10, Built by MSYS2 project)
  configuration: --enable-gpl --enable-version3 --enable-static --disable-w32threads --disable-autodetect --enable-fontconfig --enable-iconv --enable-gnutls --enable-libxml2 --enable-gmp --enable-lzma --enable-zlib --enable-libsrt --enable-libssh --enable-libzmq --enable-avisynth --enable-sdl2 --enable-libwebp --enable-libx264 --enable-libx265 --enable-libxvid --enable-libaom --enable-libopenjpeg --enable-libvpx --enable-libass --enable-libfreetype --enable-libfribidi --enable-libvidstab --enable-libvmaf --enable-libzimg --enable-amf --enable-cuda-llvm --enable-cuvid --enable-ffnvcodec --enable-nvdec --enable-nvenc --enable-d3d11va --enable-dxva2 --enable-libmfx --enable-libgme --enable-libopenmpt --enable-libopencore-amrwb --enable-libmp3lame --enable-libtheora --enable-libvo-amrwbenc --enable-libgsm --enable-libopencore-amrnb --enable-libopus --enable-libspeex --enable-libvorbis --enable-librubberband
  libavutil      58.  2.100 / 58.  2.100
  libavcodec     60.  3.100 / 60.  3.100
  libavformat    60.  3.100 / 60.  3.100
  libavdevice    60.  1.100 / 60.  1.100
  libavfilter     9.  3.100 /  9.  3.100
  libswscale      7.  1.100 /  7.  1.100
  libswresample   4. 10.100 /  4. 10.100
  libpostproc    57.  1.100 / 57.  1.100
ffmpeg stats and -progress period set to 10.
[gdigrab @ 000001e5c9611780] Found window capture.js - stream-play-server - Visual Studio Code, capturing 1920x1030x32 at (0,0)
[gdigrab @ 000001e5c9611780] Stream #0: not enough frames to estimate rate; consider increasing probesize
Input #0, gdigrab, from 'title=capture.js - stream-play-server - Visual Studio Code':
  Duration: N/A, start: 1713627991.091401, bitrate: 1898508 kb/s
  Stream #0:0: Video: bmp, bgr0, 1920x1030, 1898508 kb/s, 30 fps, 1000k tbr, 1000k tbn
Stream mapping:
  Stream #0:0 -> #0:0 (bmp (native) -> h264 (libx264))
Press [q] to stop, [?] for help
[libx264 @ 000001e5c960e280] using cpu capabilities: MMX2 SSE2Fast SSSE3 SSE4.2 AVX FMA3 BMI2 AVX2
[libx264 @ 000001e5c960e280] profile Constrained Baseline, level 4.0, 4:2:0, 8-bit
Output #0, rtp, to 'rtp://127.0.0.1:5004?pkt_size=1200':
  Metadata:
    encoder         : Lavf60.3.100
  Stream #0:0: Video: h264, yuv420p(tv, progressive), 1920x1030, q=2-31, 30 fps, 90k tbn
    Metadata:
      encoder         : Lavc60.3.100 libx264
    Side data:
      cpb: bitrate max/min/avg: 0/0/0 buffer size: 0 vbv_delay: N/A
SDP:
v=0
o=- 0 0 IN IP4 127.0.0.1
s=No Name
c=IN IP4 127.0.0.1
t=0 0
a=tool:libavformat 60.3.100
m=video 5004 RTP/AVP 96
a=rtpmap:96 H264/90000
a=fmtp:96 packetization-mode=1

frame=    0 fps=0.0 q=22.0 size=       0kB time=00:00:00.00 bitrate=N/A speed=N/A    frame=  302 fps= 30 q=15.0 size=      45kB time=00:00:10.06 bitrate=  36.5kbits/s dup=3 drop=0 speed=1.01x    frame=  602 fps= 30 q=15.0 size=      95kB time=00:00:20.06 bitrate=  38.7kbits/s dup=3 drop=0 speed=   1x    frame=  903 fps= 30 q=15.0 size=     144kB time=00:00:30.10 bitrate=  39.1kbits/s dup=3 drop=0 speed=   1x    frame= 1203 fps= 30 q=15.0 size=     182kB time=00:00:40.10 bitrate=  37.2kbits/s dup=3 drop=0 speed=   1x    frame= 1503 fps= 30 q=15.0 size=     225kB time=00:00:50.10 bitrate=  36.8kbits/s dup=3 drop=0 speed=   1x    frame= 1804 fps= 30 q=15.0 size=     266kB time=00:01:00.13 bitrate=  36.3kbits/s dup=3 drop=0 speed=   1x    frame= 2105 fps= 30 q=15.0 size=     309kB time=00:01:10.16 bitrate=  36.1kbits/s dup=3 drop=0 speed=   1x    frame= 2405 fps= 30 q=15.0 size=     346kB time=00:01:20.16 bitrate=  35.4kbits/s dup=3 drop=0 speed=   1x    frame= 2705 fps= 30 q=15.0 size=     396kB time=00:01:30.16 bitrate=  36.0kbits/s dup=3 drop=0 speed=   1x    frame= 3006 fps= 30 q=15.0 size=     452kB time=00:01:40.20 bitrate=  37.0kbits/s dup=3 drop=0 speed=   1x    frame= 3307 fps= 30 q=16.0 size=     498kB time=00:01:50.23 bitrate=  37.0kbits/s dup=3 drop=0 speed=   1x    frame= 3607 fps= 30 q=15.0 size=     538kB time=00:02:00.23 bitrate=  36.6kbits/s dup=3 drop=0 speed=   1x    frame= 3908 fps= 30 q=15.0 size=     575kB time=00:02:10.26 bitrate=  36.1kbits/s dup=3 drop=0 speed=   1x    frame= 4208 fps= 30 q=15.0 size=     613kB time=00:02:20.26 bitrate=  35.8kbits/s dup=3 drop=0 speed=   1x    frame= 4508 fps= 30 q=15.0 size=     658kB time=00:02:30.26 bitrate=  35.9kbits/s dup=3 drop=0 speed=   1x    frame= 4809 fps= 30 q=15.0 size=     697kB time=00:02:40.30 bitrate=  35.6kbits/s dup=3 drop=0 speed=   1x    frame= 5110 fps= 30 q=15.0 size=     745kB time=00:02:50.33 bitrate=  35.8kbits/s dup=3 drop=0 speed=   1x    frame= 5410 fps= 30 q=15.0 size=     782kB time=00:03:00.33 bitrate=  35.5kbits/s dup=3 drop=0 speed=   1x    frame= 5711 fps= 30 q=15.0 size=     819kB time=00:03:10.36 bitrate=  35.2kbits/s dup=3 drop=0 speed=   1x    frame= 6011 fps= 30 q=15.0 size=     863kB time=00:03:20.36 bitrate=  35.3kbits/s dup=3 drop=0 speed=   1x    frame= 6312 fps= 30 q=15.0 size=     900kB time=00:03:30.40 bitrate=  35.0kbits/s dup=3 drop=0 speed=   1x    frame= 6613 fps= 30 q=15.0 size=     937kB time=00:03:40.43 bitrate=  34.8kbits/s dup=3 drop=0 speed=   1x    frame= 6913 fps= 30 q=15.0 size=     974kB time=00:03:50.43 bitrate=  34.6kbits/s dup=3 drop=0 speed=   1x    frame= 7213 fps= 30 q=15.0 size=    1011kB time=00:04:00.43 bitrate=  34.5kbits/s dup=3 drop=0 speed=   1x    frame= 7514 fps= 30 q=15.0 size=    1056kB time=00:04:10.46 bitrate=  34.5kbits/s dup=3 drop=0 speed=   1x    frame= 7815 fps= 30 q=15.0 size=    1095kB time=00:04:20.50 bitrate=  34.4kbits/s dup=3 drop=0 speed=   1x    frame= 8116 fps= 30 q=15.0 size=    1138kB time=00:04:30.53 bitrate=  34.5kbits/s dup=3 drop=0 speed=   1x    frame= 8416 fps= 30 q=15.0 size=    1185kB time=00:04:40.53 bitrate=  34.6kbits/s dup=3 drop=0 speed=   1x    frame= 8717 fps= 30 q=15.0 size=    1225kB time=00:04:50.56 bitrate=  34.6kbits/s dup=3 drop=0 speed=   1x    frame= 9017 fps= 30 q=15.0 size=    1282kB time=00:05:00.56 bitrate=  34.9kbits/s dup=3 drop=0 speed=   1x    frame= 9318 fps= 30 q=15.0 size=    1320kB time=00:05:10.60 bitrate=  34.8kbits/s dup=3 drop=0 speed=   1x    frame= 9618 fps= 30 q=15.0 size=    1361kB time=00:05:20.60 bitrate=  34.8kbits/s dup=3 drop=0 speed=   1x    frame= 9919 fps= 30 q=15.0 size=    1406kB time=00:05:30.63 bitrate=  34.8kbits/s dup=3 drop=0 speed=   1x    frame=10220 fps= 30 q=15.0 size=    1445kB time=00:05:40.66 bitrate=  34.8kbits/s dup=3 drop=0 speed=   1x    frame=10521 fps= 30 q=15.0 size=    1495kB time=00:05:50.70 bitrate=  34.9kbits/s dup=3 drop=0 speed=   1x    frame=10821 fps= 30 q=15.0 size=    1535kB time=00:06:00.70 bitrate=  34.9kbits/s dup=3 drop=0 speed=   1x    frame=11121 fps= 30 q=15.0 size=    1577kB time=00:06:10.70 bitrate=  34.8kbits/s dup=3 drop=0 speed=   1x    frame=11422 fps= 30 q=15.0 size=    1620kB time=00:06:20.73 bitrate=  34.9kbits/s dup=3 drop=0 speed=   1x    frame=11722 fps= 30 q=15.0 size=    1657kB time=00:06:30.73 bitrate=  34.7kbits/s dup=3 drop=0 speed=   1x    frame=12023 fps= 30 q=15.0 size=    1707kB time=00:06:40.76 bitrate=  34.9kbits/s dup=3 drop=0 speed=   1x    frame=12323 fps= 30 q=15.0 size=    1744kB time=00:06:50.76 bitrate=  34.8kbits/s dup=3 drop=0 speed=   1x    frame=12623 fps= 30 q=15.0 size=    1785kB time=00:07:00.76 bitrate=  34.7kbits/s dup=3 drop=0 speed=   1x    frame=12922 fps= 30 q=15.0 size=    1837kB time=00:07:10.73 bitrate=  34.9kbits/s dup=3 drop=0 speed=   1x    frame=13220 fps= 30 q=15.0 size=    1877kB time=00:07:20.66 bitrate=  34.9kbits/s dup=11 drop=0 speed=   1x    frame=13525 fps= 30 q=15.0 size=    1925kB time=00:07:30.83 bitrate=  35.0kbits/s dup=18 drop=0 speed=   1x    frame=13826 fps= 30 q=15.0 size=    1972kB time=00:07:40.86 bitrate=  35.0kbits/s dup=18 drop=0 speed=   1x    frame=14127 fps= 30 q=15.0 size=    2016kB time=00:07:50.90 bitrate=  35.1kbits/s dup=18 drop=0 speed=   1x    frame=14428 fps= 30 q=15.0 size=    2053kB time=00:08:00.93 bitrate=  35.0kbits/s dup=18 drop=0 speed=   1x    frame=14727 fps= 30 q=15.0 size=    2099kB time=00:08:10.90 bitrate=  35.0kbits/s dup=21 drop=0 speed=   1x    frame=15029 fps= 30 q=15.0 size=    2145kB time=00:08:20.96 bitrate=  35.1kbits/s dup=37 drop=0 speed=   1x    frame=15328 fps= 30 q=15.0 size=    2193kB time=00:08:30.93 bitrate=  35.2kbits/s dup=39 drop=0 speed=   1x    frame=15630 fps= 30 q=15.0 size=    2236kB time=00:08:41.00 bitrate=  35.2kbits/s dup=46 drop=0 speed=   1x    frame=15931 fps= 30 q=15.0 size=    2273kB time=00:08:51.03 bitrate=  35.1kbits/s dup=46 drop=0 speed=   1x    frame=16231 fps= 30 q=15.0 size=    2310kB time=00:09:01.03 bitrate=  35.0kbits/s dup=46 drop=0 speed=   1x    frame=16531 fps= 30 q=15.0 size=    2354kB time=00:09:11.03 bitrate=  35.0kbits/s dup=46 drop=0 speed=   1x    frame=16832 fps= 30 q=15.0 size=    2395kB time=00:09:21.06 bitrate=  35.0kbits/s dup=46 drop=0 speed=   1x    frame=17132 fps= 30 q=15.0 size=    2434kB time=00:09:31.06 bitrate=  34.9kbits/s dup=46 drop=0 speed=   1x    frame=17433 fps= 30 q=15.0 size=    2472kB time=00:09:41.10 bitrate=  34.8kbits/s dup=46 drop=0 speed=   1x    frame=17734 fps= 30 q=15.0 size=    2509kB time=00:09:51.13 bitrate=  34.8kbits/s dup=46 drop=0 speed=   1x    frame=18034 fps= 30 q=15.0 size=    2553kB time=00:10:01.13 bitrate=  34.8kbits/s dup=46 drop=0 speed=   1x    frame=18334 fps= 30 q=15.0 size=    2590kB time=00:10:11.13 bitrate=  34.7kbits/s dup=46 drop=0 speed=   1x    frame=18635 fps= 30 q=15.0 size=    2630kB time=00:10:21.16 bitrate=  34.7kbits/s dup=46 drop=0 speed=   1x    frame=18936 fps= 30 q=15.0 size=    2671kB time=00:10:31.20 bitrate=  34.7kbits/s dup=46 drop=0 speed=   1x    frame=19236 fps= 30 q=15.0 size=    2716kB time=00:10:41.20 bitrate=  34.7kbits/s dup=46 drop=0 speed=   1x    frame=19536 fps= 30 q=15.0 size=    2764kB time=00:10:51.20 bitrate=  34.8kbits/s dup=46 drop=0 speed=   1x    frame=19836 fps= 30 q=15.0 size=    2814kB time=00:11:01.20 bitrate=  34.9kbits/s dup=46 drop=0 speed=   1x    frame=20137 fps= 30 q=15.0 size=    2859kB time=00:11:11.23 bitrate=  34.9kbits/s dup=46 drop=0 speed=   1x    frame=20438 fps= 30 q=15.0 size=    2901kB time=00:11:21.26 bitrate=  34.9kbits/s dup=46 drop=0 speed=   1x    frame=20738 fps= 30 q=15.0 size=    2938kB time=00:11:31.26 bitrate=  34.8kbits/s dup=46 drop=0 speed=   1x    frame=21038 fps= 30 q=15.0 size=    2981kB time=00:11:41.26 bitrate=  34.8kbits/s dup=46 drop=0 speed=   1x    frame=21339 fps= 30 q=15.0 size=    3018kB time=00:11:51.30 bitrate=  34.8kbits/s dup=46 drop=0 speed=   1x    frame=21640 fps= 30 q=15.0 size=    3055kB time=00:12:01.33 bitrate=  34.7kbits/s dup=46 drop=0 speed=   1x    frame=21941 fps= 30 q=15.0 size=    3092kB time=00:12:11.36 bitrate=  34.6kbits/s dup=46 drop=0 speed=   1x    frame=22241 fps= 30 q=15.0 size=    3129kB time=00:12:21.36 bitrate=  34.6kbits/s dup=46 drop=0 speed=   1x    frame=22542 fps= 30 q=15.0 size=    3172kB time=00:12:31.40 bitrate=  34.6kbits/s dup=46 drop=0 speed=   1x    frame=22843 fps= 30 q=15.0 size=    3209kB time=00:12:41.43 bitrate=  34.5kbits/s dup=46 drop=0 speed=   1x    frame=23144 fps= 30 q=15.0 size=    3246kB time=00:12:51.46 bitrate=  34.5kbits/s dup=46 drop=0 speed=   1x    frame=23445 fps= 30 q=15.0 size=    3283kB time=00:13:01.50 bitrate=  34.4kbits/s dup=46 drop=0 speed=   1x    frame=23745 fps= 30 q=15.0 size=    3319kB time=00:13:11.50 bitrate=  34.4kbits/s dup=46 drop=0 speed=   1x    frame=24046 fps= 30 q=15.0 size=    3362kB time=00:13:21.53 bitrate=  34.4kbits/s dup=46 drop=0 speed=   1x    frame=24347 fps= 30 q=15.0 size=    3399kB time=00:13:31.56 bitrate=  34.3kbits/s dup=46 drop=0 speed=   1x    frame=24647 fps= 30 q=15.0 size=    3436kB time=00:13:41.56 bitrate=  34.3kbits/s dup=46 drop=0 speed=   1x    frame=24948 fps= 30 q=15.0 size=    3473kB time=00:13:51.60 bitrate=  34.2kbits/s dup=46 drop=0 speed=   1x    frame=25248 fps= 30 q=15.0 size=    3510kB time=00:14:01.60 bitrate=  34.2kbits/s dup=46 drop=0 speed=   1x    frame=25548 fps= 30 q=15.0 size=    3553kB time=00:14:11.60 bitrate=  34.2kbits/s dup=46 drop=0 speed=   1x    frame=25849 fps= 30 q=15.0 size=    3590kB time=00:14:21.63 bitrate=  34.1kbits/s dup=46 drop=0 speed=   1x    frame=26149 fps= 30 q=15.0 size=    3627kB time=00:14:31.63 bitrate=  34.1kbits/s dup=46 drop=0 speed=   1x    frame=26449 fps= 30 q=15.0 size=    3664kB time=00:14:41.63 bitrate=  34.0kbits/s dup=46 drop=0 speed=   1x    frame=26749 fps= 30 q=15.0 size=    3701kB time=00:14:51.63 bitrate=  34.0kbits/s dup=46 drop=0 speed=   1x    frame=27050 fps= 30 q=15.0 size=    3744kB time=00:15:01.66 bitrate=  34.0kbits/s dup=46 drop=0 speed=   1x    frame=27351 fps= 30 q=15.0 size=    3781kB time=00:15:11.70 bitrate=  34.0kbits/s dup=46 drop=0 speed=   1x    frame=27651 fps= 30 q=15.0 size=    3818kB time=00:15:21.70 bitrate=  33.9kbits/s dup=46 drop=0 speed=   1x    frame=27952 fps= 30 q=15.0 size=    3855kB time=00:15:31.73 bitrate=  33.9kbits/s dup=46 drop=0 speed=   1x    frame=28253 fps= 30 q=15.0 size=    3898kB time=00:15:41.76 bitrate=  33.9kbits/s dup=46 drop=0 speed=   1x    frame=28553 fps= 30 q=15.0 size=    3935kB time=00:15:51.76 bitrate=  33.9kbits/s dup=46 drop=0 speed=   1x    frame=28854 fps= 30 q=15.0 size=    3972kB time=00:16:01.80 bitrate=  33.8kbits/s dup=46 drop=0 speed=   1x    frame=29154 fps= 30 q=15.0 size=    4008kB time=00:16:11.80 bitrate=  33.8kbits/s dup=46 drop=0 speed=   1x    frame=29455 fps= 30 q=15.0 size=    4045kB time=00:16:21.83 bitrate=  33.8kbits/s dup=46 drop=0 speed=   1x    frame=29764 fps= 30 q=15.0 size=    4089kB time=00:16:32.13 bitrate=  33.8kbits/s dup=56 drop=0 speed=   1x    frame=30067 fps= 30 q=15.0 size=    4127kB time=00:16:42.23 bitrate=  33.7kbits/s dup=56 drop=2 speed=   1x    frame=30372 fps= 30 q=15.0 size=    4164kB time=00:16:52.40 bitrate=  33.7kbits/s dup=107 drop=13 speed=   1x    frame=30675 fps= 30 q=15.0 size=    4201kB time=00:17:02.50 bitrate=  33.7kbits/s dup=120 drop=21 speed=   1x    frame=30975 fps= 30 q=15.0 size=    4238kB time=00:17:12.50 bitrate=  33.6kbits/s dup=158 drop=32 speed=   1x    frame=31282 fps= 30 q=15.0 size=    4282kB time=00:17:22.73 bitrate=  33.6kbits/s dup=184 drop=36 speed=   1x    frame=31585 fps= 30 q=15.0 size=    4319kB time=00:17:32.83 bitrate=  33.6kbits/s dup=210 drop=47 speed=   1x    frame=31885 fps= 30 q=15.0 size=    4356kB time=00:17:42.83 bitrate=  33.6kbits/s dup=223 drop=51 speed=   1x    frame=32185 fps= 30 q=15.0 size=    4393kB time=00:17:52.83 bitrate=  33.5kbits/s dup=223 drop=51 speed=   1x    frame=32485 fps= 30 q=15.0 size=    4429kB time=00:18:02.83 bitrate=  33.5kbits/s dup=260 drop=61 speed=   1x    frame=32786 fps= 30 q=15.0 size=    4473kB time=00:18:12.86 bitrate=  33.5kbits/s dup=285 drop=68 speed=   1x    frame=33086 fps= 30 q=15.0 size=    4509kB time=00:18:22.86 bitrate=  33.5kbits/s dup=311 drop=76 speed=   1x    frame=33387 fps= 30 q=15.0 size=    4546kB time=00:18:32.90 bitrate=  33.5kbits/s dup=350 drop=88 speed=   1x    frame=33687 fps= 30 q=15.0 size=    4583kB time=00:18:42.90 bitrate=  33.4kbits/s dup=362 drop=91 speed=   1x    frame=33988 fps= 30 q=15.0 size=    4620kB time=00:18:52.93 bitrate=  33.4kbits/s dup=375 drop=95 speed=   1x    frame=34288 fps= 30 q=15.0 size=    4663kB time=00:19:02.93 bitrate=  33.4kbits/s dup=388 drop=99 speed=   1x    frame=34585 fps= 30 q=15.0 size=    4700kB time=00:19:12.83 bitrate=  33.4kbits/s dup=401 drop=99 speed=   1x    frame=34889 fps= 30 q=15.0 size=    4737kB time=00:19:22.96 bitrate=  33.4kbits/s dup=440 drop=115 speed=   1x    frame=35189 fps= 30 q=15.0 size=    4774kB time=00:19:32.96 bitrate=  33.3kbits/s dup=466 drop=123 speed=   1x    frame=35489 fps= 30 q=15.0 size=    4811kB time=00:19:42.96 bitrate=  33.3kbits/s dup=466 drop=123 speed=   1x    frame=35801 fps= 30 q=15.0 size=    4855kB time=00:19:53.36 bitrate=  33.3kbits/s dup=479 drop=123 speed=   1x    frame=36114 fps= 30 q=15.0 size=    4893kB time=00:20:03.80 bitrate=  33.3kbits/s dup=492 drop=127 speed=   1x    frame=36417 fps= 30 q=15.0 size=    4930kB time=00:20:13.90 bitrate=  33.3kbits/s dup=518 drop=139 speed=   1x    frame=36718 fps= 30 q=15.0 size=    4967kB time=00:20:23.93 bitrate=  33.2kbits/s dup=544 drop=147 speed=   1x    frame=37018 fps= 30 q=15.0 size=    5010kB time=00:20:33.93 bitrate=  33.3kbits/s dup=570 drop=155 speed=   1x    frame=37319 fps= 30 q=15.0 size=    5047kB time=00:20:43.96 bitrate=  33.2kbits/s dup=596 drop=163 speed=   1x    frame=37619 fps= 30 q=15.0 size=    5084kB time=00:20:53.96 bitrate=  33.2kbits/s dup=622 drop=171 speed=   1x    frame=37920 fps= 30 q=15.0 size=    5121kB time=00:21:04.00 bitrate=  33.2kbits/s dup=622 drop=171 speed=   1x    frame=38221 fps= 30 q=15.0 size=    5158kB time=00:21:14.03 bitrate=  33.2kbits/s dup=635 drop=175 speed=   1x    frame=38521 fps= 30 q=15.0 size=    5201kB time=00:21:24.03 bitrate=  33.2kbits/s dup=648 drop=179 speed=   1x    frame=38822 fps= 30 q=15.0 size=    5238kB time=00:21:34.06 bitrate=  33.2kbits/s dup=686 drop=190 speed=   1x    frame=39123 fps= 30 q=15.0 size=    5277kB time=00:21:44.10 bitrate=  33.2kbits/s dup=692 drop=191 speed=   1x    frame=39423 fps= 30 q=15.0 size=    5315kB time=00:21:54.10 bitrate=  33.1kbits/s dup=692 drop=191 speed=   1x    frame=39723 fps= 30 q=15.0 size=    5352kB time=00:22:04.10 bitrate=  33.1kbits/s dup=692 drop=191 speed=   1x    frame=40024 fps= 30 q=15.0 size=    5395kB time=00:22:14.13 bitrate=  33.1kbits/s dup=692 drop=191 speed=   1x    frame=40324 fps= 30 q=15.0 size=    5436kB time=00:22:24.13 bitrate=  33.1kbits/s dup=692 drop=191 speed=   1x    frame=40624 fps= 30 q=15.0 size=    5472kB time=00:22:34.13 bitrate=  33.1kbits/s dup=692 drop=191 speed=   1x    frame=40925 fps= 30 q=15.0 size=    5517kB time=00:22:44.16 bitrate=  33.1kbits/s dup=692 drop=191 speed=   1x    frame=41226 fps= 30 q=16.0 size=    5555kB time=00:22:54.20 bitrate=  33.1kbits/s dup=692 drop=191 speed=   1x    frame=41526 fps= 30 q=15.0 size=    5607kB time=00:23:04.20 bitrate=  33.2kbits/s dup=692 drop=191 speed=   1x    